<svg xmlns="http://www.w3.org/2000/svg" xmlns:xlink="http://www.w3.org/1999/xlink" width="178" height="58" viewBox="0 0 178 58">
    <defs>
        <path id="x7wkjhi3fa" d="M0.395 32.922L73.182 32.922 73.182 0.205 0.395 0.205z"/>
    </defs>
    <g fill="none" fill-rule="evenodd">
        <g>
            <g>
                <g>
                    <path d="M0 0H177.778V57.778H0z" transform="translate(-170 -819) translate(0 769) translate(170 50)"/>
                    <g>
                        <path fill="#FFF" d="M9.729 27.402c-.11.35-.439.581-.769.581H4.851c-.328 0-.658-.289-.768-.581L.03 13.754c-.11-.352.109-.585.383-.585h3.015c.329 0 .658.292.767.585l2.52 9.331c.11.35.22.35.33 0l2.52-9.331c.11-.352.44-.585.767-.585h3.015c.329 0 .494.292.383.585l-4 13.648zM22.72 22.022v-3.717c0-1.416-.69-2.243-2.128-2.243-1.436 0-2.127.827-2.127 2.243v3.717c0 1.418.692 2.245 2.127 2.245 1.49-.001 2.128-.769 2.128-2.245m-8.191-.117v-3.481c0-3.069 1.33-6.078 6.116-6.078s6.118 3.01 6.118 6.078v3.48c0 3.13-1.331 6.08-6.118 6.08-4.84 0-6.116-2.95-6.116-6.08M36.537 22.022v-3.717c0-1.416-.691-2.243-2.128-2.243-1.437 0-2.127.827-2.127 2.243v3.717c0 1.418.691 2.245 2.127 2.245 1.437-.001 2.128-.769 2.128-2.245m-8.245-.117v-3.481c0-3.069 1.33-6.078 6.117-6.078 4.788 0 6.118 3.01 6.118 6.078v3.48c0 3.13-1.278 6.08-6.118 6.08-4.787 0-6.117-2.95-6.117-6.08M50.738 25.415c-.055-.295-.29-.449-.567-.449-.054 0-.258.032-.258.032-.385.06-.714.056-.99.06-.779.008-.825-1.07-.825-1.428v-6.124c0-.358.275-.656.606-.656h1.758c.33 0 .604-.297.604-.654l.166-2.377c0-.357-.221-.654-.549-.654H48.65c-.33 0-.607-.298-.607-.655V9.597c0-.356-.274-.594-.547-.534l-2.97.476c-.326.06-.546.358-.546.715v2.378c0 .356-.276.655-.605.655h-.715c-.33 0-.603.299-.603.655v2.379c0 .356.274.656.603.656h.715c.33 0 .605.294.605.652v7.314c0 2.793 1.539 3.863 4.23 3.863.77 0 1.65-.12 2.419-.355.274-.058.53-.25.48-.754-.034-.342-.37-2.282-.37-2.282" transform="translate(-170 -819) translate(0 769) translate(170 50) translate(24.889 12.444)"/>
                        <path fill="#67D7EA" d="M100.934 18.156c-.007-1.59-.875-2.518-2.676-2.518-1.807 0-2.676.933-2.676 2.534v2.337c0 1.601.87 2.536 2.676 2.536 1.807 0 2.677-.869 2.677-2.536v-.418l-.001-1.935z" transform="translate(-170 -819) translate(0 769) translate(170 50) translate(24.889 12.444)"/>
                        <g transform="translate(-170 -819) translate(0 769) translate(170 50) translate(24.889 12.444) translate(53.526)">
                            <mask id="8wq0cfamxb" fill="#fff">
                                <use xlink:href="#x7wkjhi3fa"/>
                            </mask>
                            <path fill="#67D7EA" d="M44.674 26.828c-5.722 0-7.311-3.407-7.311-7.02v-2.115c0-3.543 1.59-7.02 7.31-7.02.965 0 1.802.106 2.543.287V6.973c0-1.636.775-2.59 2.385-2.59 1.61 0 2.384.954 2.384 2.59v12.835c0 3.613-1.525 7.02-7.311 7.02zm-12.67-16.656c-1.714 0-2.542-.955-2.542-2.592s.827-2.59 2.542-2.59c1.718 0 2.544.953 2.544 2.59 0 1.704-.763 2.591-2.544 2.592zm2.544 14.063c0 1.705-.763 2.592-2.544 2.593-1.714 0-2.542-.955-2.542-2.593v-9.358c0-1.636.827-2.59 2.542-2.59 1.718 0 2.544.954 2.544 2.59v9.358zm38.598-4.443L71.191 3.918C70.91 1.663 68.926.415 66.867.406 64.85.4 56.755-.552 41.19 1.752c-9.124 1.35-18.171 3.585-24.101 5.204V13.644c0 .54.61.811.967.429l3.703-3.971c1.08-1.157 2.293-1.205 3.506.096 1.215 1.302 1.17 2.603.09 3.76l-3.24 3.474c-.286.308-.286.807 0 1.115l3.329 3.568c1.079 1.157 1.124 2.458-.09 3.76-1.214 1.301-2.428 1.253-3.507.096l-3.791-4.065c-.357-.382-.966-.111-.966.43v1.9c0 1.704-.764 2.591-2.544 2.592-1.715 0-2.543-.955-2.543-2.593V8.405c-1.11.332-1.736.53-1.736.53-2.073.554-3.539 2.365-3.26 4.6l.562 4.558.014.121c-.939.933-2.89 2.14-6.19.98-.784-.274-1.309.728-.791 1.418 2.76 3.683 5.644 4.858 7.904 5.091l.032.262.424 3.445c.282 2.255 2.016 3.526 4.325 3.512 0 0 13.068.02 27.43-1.992 6.945-.973 13.988-2.533 19.416-3.885-1.602-.303-3.22-.834-4.102-1.32-1.175-.645-1.64-2.19-1.037-3.45.603-1.26 2.044-1.759 3.22-1.113.601.332 2.783.983 4.187 1.004.565.007.974-.245 1.14-.5.054-.08.176-.269.002-.757-.183-.515-1.487-.79-2.637-1.035-.879-.186-1.787-.379-2.664-.735-1.55-.629-2.738-1.802-3.343-3.303-.578-1.434-.582-3.037-.01-4.513 1.016-2.624 3.509-4.134 6.352-3.847 2.153.217 4.53 1.291 4.795 1.413 1.213.56 1.774 2.067 1.252 3.368-.521 1.302-1.927 1.903-3.141 1.343-.528-.242-2.165-.898-3.354-1.019-.196-.02-1.183-.077-1.487.708-.072.187-.078.36-.017.513.088.215.317.408.646.541.503.204 1.181.348 1.9.5 2.13.452 5.049 1.071 6.177 4.237.685 1.924.484 3.937-.55 5.524-.146.223-.307.432-.478.63 1.832-.514 2.902-.84 2.902-.84 2.14-.562 3.54-2.366 3.26-4.602z" mask="url(#8wq0cfamxb)"/>
                        </g>
                    </g>
                </g>
            </g>
        </g>
    </g>
</svg>
